HIERARCHY
ROOT Hips
{
	OFFSET 0.00000 0.00000 0.00000
	CHANNELS 6 Xposition Yposition Zposition Zrotation Yrotation Xrotation 
	JOINT RightUpLegDummy
	{
		OFFSET 0 0 0
		CHANNELS 3 Zrotation Yrotation Xrotation
		JOINT RightUpLeg
		{
			OFFSET -3.52197 -3.41223 0.04002
			CHANNELS 3 Zrotation Yrotation Xrotation
			JOINT RightLeg
			{
				OFFSET -1.06336 -17.58347 1.60435
				CHANNELS 3 Zrotation Yrotation Xrotation
				JOINT RightFoot
				{
					OFFSET -0.27018 -17.05419 -1.63900
					CHANNELS 3 Zrotation Yrotation Xrotation
					JOINT RightToes
					{
						OFFSET 0.00298 -1.73825 3.34613
						CHANNELS 3 Zrotation Yrotation Xrotation
						End Site
						{
							OFFSET 0.00480 -0.05416 3.85043
						}
					}
				}
			}
		}
	}
	JOINT SpineDummy
	{
		OFFSET 0 0 0
		CHANNELS 3 Zrotation Yrotation Xrotation
		JOINT Spine
		{
			OFFSET 0.00000 4.14613 0.00000
			CHANNELS 3 Zrotation Yrotation Xrotation
			JOINT Spine1
			{
				OFFSET 0.00000 10.93369 0.05002
				CHANNELS 3 Zrotation Yrotation Xrotation
				JOINT HEadDummy
				{
					OFFSET 0 0 0
					CHANNELS 3 Zrotation Yrotation Xrotation
					JOINT Head
					{
						OFFSET 0.00000 5.52901 0.00438
						CHANNELS 3 Zrotation Yrotation Xrotation
						End Site
						{
							OFFSET -0.11417 7.29012 0.98962
						}
					}
				}
				JOINT LeftShoulder1Dummy
				{
					OFFSET 0 0 0
					CHANNELS 3 Zrotation Yrotation Xrotation
					JOINT LeftShoulder1
					{
						OFFSET 3.53937 -0.14262 -0.08662
						CHANNELS 3 Zrotation Yrotation Xrotation
						JOINT LeftArm
						{
							OFFSET 4.04833 -0.00133 0.12681
							CHANNELS 3 Zrotation Yrotation Xrotation
							JOINT LeftForeArm
							{
								OFFSET 9.67557 0.03289 -0.56117
								CHANNELS 3 Zrotation Yrotation Xrotation
								JOINT LeftHand
								{
									OFFSET 10.17679 0.06873 0.40307
									CHANNELS 3 Zrotation Yrotation Xrotation
									End Site
									{
										OFFSET 6.59293 -0.21483 0.59213
									}
								}
							}
						}
					}
				}
				JOINT RightShoulderDummy
				{
					OFFSET 0 0 0
					CHANNELS 3 Zrotation Yrotation Xrotation
					JOINT RightShoulder
					{
						OFFSET -3.53937 -0.14262 -0.08660
						CHANNELS 3 Zrotation Yrotation Xrotation
						JOINT RightArm
						{
							OFFSET -4.04833 -0.00132 0.12683
							CHANNELS 3 Zrotation Yrotation Xrotation
							JOINT RightForeArm
							{
								OFFSET -9.67570 0.03289 -0.56114
								CHANNELS 3 Zrotation Yrotation Xrotation
								JOINT RightHand
								{
									OFFSET -10.17679 0.06867 0.40304
									CHANNELS 3 Zrotation Yrotation Xrotation
									End Site
									{
										OFFSET -6.54841 -0.21495 0.59212
									}
								}
							}
						}
					}
				}
			}
		}
	}
	JOINT LeftUpLegDummy
	{
		OFFSET 0 0 0
		CHANNELS 3 Zrotation Yrotation Xrotation
		JOINT LeftUpLeg
		{
			OFFSET 3.52197 -3.41223 0.04002
			CHANNELS 3 Zrotation Yrotation Xrotation
			JOINT LeftLeg
			{
				OFFSET 1.08359 -17.35354 1.60336
				CHANNELS 3 Zrotation Yrotation Xrotation
				JOINT LeftFoot
				{
					OFFSET 0.24986 -17.28405 -1.63802
					CHANNELS 3 Zrotation Yrotation Xrotation
					JOINT LeftToes
					{
						OFFSET -0.01575 -1.73822 3.34610
						CHANNELS 3 Zrotation Yrotation Xrotation
						End Site
						{
							OFFSET 0.03150 -0.01868 3.85031
						}
					}
				}
			}
		}
	}
}
MOTION
Frames: 13
Frame Time: 0.033333
8.3282 40.8629 -0.1393 167.9430 -83.3730 -166.8440 0.0000 0.0000 0.0000 -7.2125 -6.8446 -3.8124 -2.2348 2.9445 4.7556 1.2473 -0.0740 -1.9401 0.0000 0.0000 -0.0000 0.0000 0.0000 0.0000 2.3476 0.9895 -5.1813 -4.7277 1.9252 4.2116 0.0000 0.0000 0.0000 0.6213 -8.4929 8.8641 0.0000 0.0000 0.0000 5.0313 3.7652 0.0374 2.3700 -13.6954 -34.4228 -7.6596 5.3386 36.0011 1.4302 -0.8210 -0.0635 0.0000 0.0000 0.0000 -0.5188 0.0511 0.3242 -3.4012 12.6046 -27.0226 5.3496 -5.5505 21.4468 -4.4749 -1.1192 -0.1319 0.0000 0.0000 0.0000 5.4804 7.8239 0.5628 1.4248 9.0720 -0.3378 -1.2432 0.1267 0.3273 -0.0000 -0.0000 0.0000
8.3282 40.8629 -0.1462 168.0600 -83.3775 -166.9580 0.0000 0.0000 0.0000 -7.1855 -6.8160 -3.8140 -2.2439 2.9197 4.7527 1.2789 -0.0760 -1.9328 0.0000 0.0000 -0.0000 0.0000 0.0000 0.0000 2.3300 1.0002 -5.1998 -4.6787 1.9231 4.2024 0.0000 0.0000 0.0000 0.6067 -8.4999 8.9030 0.0000 0.0000 0.0000 4.9832 3.7357 0.0374 2.3957 -13.6782 -34.4678 -7.6340 5.3379 36.0518 1.4311 -0.8777 -0.0634 0.0000 0.0000 0.0000 -0.5651 0.0509 0.3242 -3.3643 12.5915 -26.9830 5.3603 -5.5503 21.4630 -4.4457 -1.2431 -0.1329 0.0000 0.0000 0.0000 5.5007 7.8307 0.5503 1.4346 9.0690 -0.3284 -1.2518 0.1273 0.3377 -0.0000 -0.0000 0.0000
8.3282 40.8629 -0.1622 168.2610 -83.3984 -167.1280 0.0000 0.0000 0.0000 -7.1370 -6.7693 -3.8247 -2.2477 2.8665 4.7367 1.2918 -0.0768 -1.9671 0.0000 0.0000 -0.0000 0.0000 0.0000 0.0000 2.2599 1.0100 -5.2625 -4.5702 1.9097 4.1854 0.0000 0.0000 0.0000 0.5502 -8.5193 8.9900 0.0000 0.0000 0.0000 4.8928 3.7213 0.0374 2.4490 -13.6511 -34.4798 -7.6289 5.3378 36.0579 1.4603 -0.8853 -0.0633 0.0000 0.0000 0.0000 -0.6080 0.0448 0.3242 -3.3367 12.5789 -26.9335 5.3825 -5.5504 21.4263 -4.4980 -1.3430 -0.1326 0.0000 0.0000 0.0000 5.5525 7.8658 0.4815 1.4360 9.0218 -0.2716 -1.2707 0.1285 0.3319 -0.0000 -0.0000 0.0000
8.3282 40.8629 -0.1810 168.5220 -83.4377 -167.3490 0.0000 0.0000 0.0000 -7.0806 -6.7341 -3.8462 -2.2312 2.8037 4.7297 1.2367 -0.0730 -2.0376 0.0000 0.0000 -0.0000 0.0000 0.0000 0.0000 2.2075 1.0115 -5.3610 -4.4965 1.8955 4.2091 0.0000 0.0000 0.0000 0.4899 -8.5219 9.0502 0.0000 0.0000 0.0000 4.8328 3.7429 0.0374 2.4935 -13.6406 -34.4609 -7.6440 5.3392 35.9747 1.4758 -0.7937 -0.0633 0.0000 0.0000 0.0000 -0.5915 0.0201 0.3242 -3.3450 12.5899 -26.9416 5.3870 -5.5511 21.3466 -4.6131 -1.4124 -0.1313 0.0000 0.0000 0.0000 5.6227 7.9130 0.3979 1.4327 8.9465 -0.2007 -1.2910 0.1298 0.3136 -0.0000 -0.0000 0.0000
8.3282 40.8629 -0.1963 168.9960 -83.4742 -167.8080 0.0000 0.0000 0.0000 -7.0020 -6.6968 -3.8568 -2.2124 2.7410 4.7508 1.1793 -0.0693 -2.0387 0.0000 0.0000 -0.0000 0.0000 0.0000 0.0000 2.2635 1.0174 -5.4656 -4.5068 1.9026 4.3043 0.0000 0.0000 0.0000 0.4708 -8.4826 9.0176 0.0000 0.0000 0.0000 4.8054 3.7556 0.0374 2.5253 -13.6328 -34.4746 -7.6374 5.3396 35.9567 1.4964 -0.7435 -0.0643 0.0000 0.0000 0.0000 -0.5534 -0.0081 0.3242 -3.3548 12.5820 -26.9535 5.3744 -5.5508 21.3847 -4.7055 -1.5419 -0.1307 0.0000 0.0000 0.0000 5.7037 7.9453 0.3675 1.4492 8.8956 -0.1715 -1.3206 0.1317 0.3081 -0.0000 -0.0000 0.0000
8.3287 40.8629 -0.2090 169.6140 -83.4895 -168.4270 0.0000 0.0000 0.0000 -6.9046 -6.6322 -3.8605 -2.2183 2.6642 4.7779 1.1975 -0.0706 -1.9813 0.0000 0.0000 -0.0000 0.0000 0.0000 0.0000 2.3658 1.0333 -5.5516 -4.5369 1.9226 4.4147 0.0000 0.0000 0.0000 0.4991 -8.4277 8.9251 0.0000 0.0000 0.0000 4.7568 3.7381 0.0374 2.5878 -13.6308 -34.5215 -7.6131 5.3371 36.1068 1.6086 -0.7843 -0.0694 0.0000 0.0000 0.0000 -0.5408 -0.0113 0.3242 -3.3494 12.5271 -26.8848 5.3883 -5.5497 21.5091 -4.7484 -1.6777 -0.1300 0.0000 0.0000 0.0000 5.7891 7.9703 0.3685 1.4776 8.8686 -0.1642 -1.3613 0.1343 0.3102 -0.0000 -0.0000 0.0000
8.3308 40.8629 -0.2220 170.0280 -83.5018 -168.8300 0.0000 0.0000 0.0000 -6.8289 -6.5685 -3.8676 -2.2370 2.5771 4.7792 1.2264 -0.0725 -1.9863 0.0000 0.0000 -0.0000 0.0000 0.0000 0.0000 2.3877 1.0448 -5.6077 -4.5221 1.9293 4.4549 0.0000 0.0000 0.0000 0.5389 -8.4049 8.8705 0.0000 0.0000 0.0000 4.6939 3.7162 0.0374 2.6875 -13.6650 -34.5414 -7.6164 5.3345 36.2482 1.7679 -0.7918 -0.0768 0.0000 0.0000 0.0000 -0.5310 -0.0073 0.3242 -3.3342 12.4882 -26.7939 5.4317 -5.5495 21.4965 -4.7151 -1.7517 -0.1266 0.0000 0.0000 0.0000 5.8587 8.0045 0.3409 1.4851 8.8229 -0.1398 -1.3869 0.1360 0.3166 -0.0000 -0.0000 0.0000
8.3336 40.8632 -0.2315 170.1020 -83.5391 -168.8930 0.0000 0.0000 0.0000 -6.8026 -6.5593 -3.8513 -2.2344 2.5270 4.7424 1.1769 -0.0692 -2.0243 0.0000 0.0000 -0.0000 0.0000 0.0000 0.0000 2.3378 1.0390 -5.6274 -4.4797 1.9165 4.4355 0.0000 0.0000 0.0000 0.5445 -8.4165 8.8817 0.0000 0.0000 0.0000 4.6676 3.7106 0.0374 2.7530 -13.7100 -34.4994 -7.6579 5.3349 36.2051 1.8229 -0.7571 -0.0796 0.0000 0.0000 0.0000 -0.4942 -0.0355 0.3242 -3.3008 12.5293 -26.7980 5.4386 -5.5499 21.4402 -4.5454 -1.7887 -0.1212 0.0000 0.0000 0.0000 5.8936 8.0300 0.3080 1.4724 8.7599 -0.1240 -1.3813 0.1356 0.3306 -0.0000 -0.0000 0.0000
8.3357 40.8650 -0.2334 170.0900 -83.5838 -168.9050 0.0000 0.0000 0.0000 -6.8021 -6.5869 -3.7784 -2.2223 2.5326 4.6538 1.1422 -0.0672 -1.9525 0.0000 0.0000 -0.0000 0.0000 0.0000 0.0000 2.3077 1.0267 -5.6219 -4.4295 1.8993 4.4424 0.0000 0.0000 0.0000 0.5162 -8.4363 8.8845 0.0000 0.0000 0.0000 4.6537 3.7273 0.0374 2.7539 -13.7284 -34.4229 -7.7023 5.3349 36.1839 1.7982 -0.8324 -0.0808 0.0000 0.0000 0.0000 -0.4542 -0.0765 0.3243 -3.2672 12.6088 -26.8589 5.3918 -5.5482 21.6767 -4.2734 -1.7389 -0.1162 0.0000 0.0000 0.0000 5.9055 8.0320 0.3300 1.4638 8.7220 -0.1486 -1.3686 0.1348 0.3595 -0.0000 -0.0000 0.0000
8.3386 40.8686 -0.2304 170.1710 -83.5915 -169.0220 0.0000 0.0000 0.0000 -6.7963 -6.5837 -3.6840 -2.2439 2.5455 4.5177 1.2414 -0.0740 -1.8160 0.0000 0.0000 -0.0000 0.0000 0.0000 0.0000 2.3076 1.0230 -5.6115 -4.3891 1.8931 4.4632 0.0000 0.0000 0.0000 0.5293 -8.4689 8.8364 0.0000 0.0000 0.0000 4.6206 3.7718 0.0374 2.7692 -13.8055 -34.3867 -7.7236 5.3304 36.4195 1.8206 -0.9672 -0.0808 0.0000 0.0000 0.0000 -0.4018 -0.0560 0.3280 -3.2902 12.6528 -26.8562 5.3825 -5.5460 21.9479 -4.0788 -1.5403 -0.1172 0.0000 0.0000 0.0000 5.9195 8.0400 0.3764 1.4500 8.7171 -0.1788 -1.3665 0.1347 0.3757 -0.0000 -0.0000 0.0000
8.3466 40.8719 -0.2241 170.2320 -83.5640 -169.0900 0.0000 0.0000 0.0000 -6.7972 -6.5633 -3.6404 -2.2771 2.5617 4.3954 1.3635 -0.0829 -1.7308 0.0000 0.0000 -0.0000 0.0000 0.0000 0.0000 2.2698 1.0195 -5.6249 -4.3577 1.8882 4.4608 0.0000 0.0000 0.0000 0.5916 -8.4937 8.7535 0.0000 0.0000 0.0000 4.5419 3.8159 0.0374 2.8890 -14.0060 -34.5029 -7.7012 5.3292 36.4948 1.6688 -0.9127 -0.0733 0.0000 0.0000 0.0000 -0.3501 0.0015 0.3353 -3.3042 12.7364 -26.8841 5.4324 -5.5497 21.4671 -4.0592 -1.4243 -0.1200 0.0000 0.0000 0.0000 5.9307 8.0708 0.3762 1.4147 8.7204 -0.1762 -1.3497 0.1336 0.3816 -0.0000 -0.0000 0.0000
8.3649 40.8771 -0.2030 170.2350 -83.5289 -169.1080 0.0000 0.0000 0.0000 -6.8452 -6.6142 -3.6605 -2.2421 2.6844 4.3615 1.3800 -0.0893 -1.5495 0.0000 0.0000 -0.0000 0.0000 0.0000 0.0000 2.1980 0.9857 -5.6435 -4.3364 1.8549 4.4879 0.0000 0.0000 0.0000 0.5871 -8.3717 8.6294 0.0000 0.0000 0.0000 4.3851 3.7949 0.0388 3.0064 -14.0892 -34.8131 -7.5841 5.3428 35.8065 0.8841 -0.7442 -0.0361 0.0000 0.0000 0.0000 -0.3495 0.0015 0.3353 -3.1460 12.9759 -27.2036 5.3581 -5.6229 20.3580 -3.9959 -1.6184 -0.1129 0.0000 0.0000 0.0000 5.9032 8.0773 0.3514 1.3982 8.7568 -0.1472 -1.3042 0.1307 0.4053 -0.0000 -0.0000 0.0000
8.3988 40.8837 -0.1544 170.3030 -83.4290 -169.2580 0.0000 0.0000 0.0000 -6.9588 -6.7290 -3.7368 -2.1436 2.9936 4.4470 1.4454 -0.1069 -1.1261 0.0000 0.0000 -0.0000 0.0000 0.0000 0.0000 2.2392 0.8980 -5.5044 -4.5725 1.8086 4.4150 0.0000 0.0000 0.0000 0.5670 -7.9675 8.5079 0.0000 0.0000 0.0000 4.3932 3.6798 0.0451 2.7545 -13.7173 -35.1092 -7.3663 5.4521 34.7570 -0.4630 -0.9586 0.0292 0.0000 0.0000 0.0000 -0.1130 0.0965 0.3535 -2.9728 13.1574 -27.7879 4.9861 -5.1342 20.3295 -3.3886 -1.7514 -0.0947 0.0000 0.0000 0.0000 5.8094 8.0222 0.3583 1.4494 8.9214 -0.0620 -1.2604 0.1278 0.4113 -0.0000 -0.0000 0.0000
